HIERARCHY
ROOT Hips
{
    OFFSET 0.0 0.0 0.0
    CHANNELS 6 Xposition Yposition Zposition Zrotation Xrotation Yrotation
    JOINT LeftUpLeg
    {
        OFFSET 14.914444172928686 0.0 0.0
        CHANNELS 3 Zrotation Xrotation Yrotation
        JOINT LeftLeg
        {
            OFFSET 0.0 0.0 -62.23480464112955
            CHANNELS 3 Zrotation Xrotation Yrotation
            JOINT LeftFoot
            {
                OFFSET 0.0 0.0 -47.244263945611394
                CHANNELS 3 Zrotation Xrotation Yrotation
                JOINT LeftToeBase
                {
                    OFFSET 0.0 -12.447372256147808 0.0
                    CHANNELS 3 Zrotation Xrotation Yrotation
                    End Site
                    {
                        OFFSET 0 0 0
                    }
                }
            }
        }
    }
    JOINT RightUpLeg
    {
        OFFSET -14.914444172928686 0.0 0.0
        CHANNELS 3 Zrotation Xrotation Yrotation
        JOINT RightLeg
        {
            OFFSET 0.0 0.0 -62.23480464112955
            CHANNELS 3 Zrotation Xrotation Yrotation
            JOINT RightFoot
            {
                OFFSET 0.0 0.0 -47.244263945611394
                CHANNELS 3 Zrotation Xrotation Yrotation
                JOINT RightToeBase
                {
                    OFFSET 0.0 -12.447372256147808 0.0
                    CHANNELS 3 Zrotation Xrotation Yrotation
                    End Site
                    {
                        OFFSET 0 0 0
                    }
                }
            }
        }
    }
    JOINT Spine
    {
        OFFSET 0.0 0.0 12.116320855617609
        CHANNELS 3 Zrotation Xrotation Yrotation
        JOINT Spine1
        {
            OFFSET 0.0 0.0 11.736838152571186
            CHANNELS 3 Zrotation Xrotation Yrotation
            JOINT Spine2
            {
                OFFSET 0.0 0.0 11.736838152571186
                CHANNELS 3 Zrotation Xrotation Yrotation
                JOINT Spine3
                {
                    OFFSET 0.0 0.0 11.736838152571185
                    CHANNELS 3 Zrotation Xrotation Yrotation
                    JOINT Spine4
                    {
                        OFFSET 0.0 0.0 11.73683815257119
                        CHANNELS 3 Zrotation Xrotation Yrotation
                        JOINT RightShoulder
                        {
                            OFFSET -26.24963936158739 0.0 0.0
                            CHANNELS 3 Zrotation Xrotation Yrotation
                            JOINT RightArm
                            {
                                OFFSET -33.7530188519329 0.0 0.0
                                CHANNELS 3 Zrotation Xrotation Yrotation
                                JOINT RightForeArm
                                {
                                    OFFSET -34.92228197455531 0.0 0.0
                                    CHANNELS 3 Zrotation Xrotation Yrotation
                                    JOINT RightHand
                                    {
                                        OFFSET -11.705471932244086 0.0 0.0
                                        CHANNELS 3 Zrotation Xrotation Yrotation
                                        End Site
                                        {
                                            OFFSET 0 0 0
                                        }
                                    }
                                }
                            }
                        }
                        JOINT LeftShoulder
                        {
                            OFFSET 26.24963936158739 0.0 0.0
                            CHANNELS 3 Zrotation Xrotation Yrotation
                            JOINT LeftArm
                            {
                                OFFSET 33.7530188519329 0.0 0.0
                                CHANNELS 3 Zrotation Xrotation Yrotation
                                JOINT LeftForeArm
                                {
                                    OFFSET 34.92228197455531 0.0 0.0
                                    CHANNELS 3 Zrotation Xrotation Yrotation
                                    JOINT LeftHand
                                    {
                                        OFFSET 11.705471932244086 0.0 0.0
                                        CHANNELS 3 Zrotation Xrotation Yrotation
                                        End Site
                                        {
                                            OFFSET 0 0 0
                                        }
                                    }
                                }
                            }
                        }
                        JOINT Neck
                        {
                            OFFSET 0.0 0.0 11.736838161673857
                            CHANNELS 3 Zrotation Xrotation Yrotation
                            JOINT Head
                            {
                                OFFSET 0.0 0.0 26.225024798071487
                                CHANNELS 3 Zrotation Xrotation Yrotation
                                End Site
                                {
                                    OFFSET 0 0 0
                                }
                            }
                        }
                    }
                }
            }
        }
    }
}
MOTION
Frames: 7
Frame Time: 0.03333333333333333
53.68271563053132 17.184120225906373 517.237187576294 35.39077885582375 -52.29202783464792 45.34007656664032 7.221656035479582 -39.013427023456636 -2.808686704446287 21.500231344636102 -20.378793945214944 18.8936504350415 -108.67956051571052 -6.3611093629270335e-15 59.91275840538507 0.0 0.0 0.0 -19.628408451738515 -29.50546791294761 -4.416061637991165 -9.266541009143326 -5.583723521728269 4.153020906061918 114.81949031153395 6.3611093629270335e-15 -36.41934829249593 0.0 0.0 0.0 -9.851935314695334 -30.353238820893388 -9.01505493476683 1.5902773407317584e-15 0.0 0.0 1.5902773407317584e-15 0.0 0.0 1.5902773407317584e-15 0.0 0.0 1.5902773407317584e-15 0.0 0.0 -125.94962325717007 -4.92942748503505 -162.12701374358122 41.505941956627886 1.1740061310188854e-14 4.054486857808774e-15 -2.268058726651991e-15 75.1308638899822 -2.268058726651991e-15 3.975693351829396e-16 0.0 0.0 -147.0077796889459 -8.621527342977444 173.74901451697733 -39.089689025154186 5.125365374940461e-15 -4.9305446131496374e-15 180.0 -46.53823690748006 180.0 3.1805546814635176e-15 -3.1805546814635176e-15 -2.3854160110976384e-15 9.930921067923713 1.0022715757006025e-14 -4.0633221998554976e-15 0.0 0.0 0.0
53.68271563053132 17.184120225906373 517.237187576294 35.39077885582375 -52.29202783464792 45.34007656664032 7.221656035479582 -39.013427023456636 -2.808686704446287 21.500231344636102 -20.378793945214944 18.8936504350415 -108.67956051571052 -6.3611093629270335e-15 59.91275840538507 0.0 0.0 0.0 -19.628408451738515 -29.50546791294761 -4.416061637991165 -9.266541009143326 -5.583723521728269 4.153020906061918 114.81949031153395 6.3611093629270335e-15 -36.41934829249593 0.0 0.0 0.0 -9.851935314695334 -30.353238820893388 -9.01505493476683 1.5902773407317584e-15 0.0 0.0 1.5902773407317584e-15 0.0 0.0 1.5902773407317584e-15 0.0 0.0 1.5902773407317584e-15 0.0 0.0 -125.94962325717007 -4.92942748503505 -162.12701374358122 41.505941956627886 1.1740061310188854e-14 4.054486857808774e-15 -2.268058726651991e-15 75.1308638899822 -2.268058726651991e-15 3.975693351829396e-16 0.0 0.0 -147.0077796889459 -8.621527342977444 173.74901451697733 -39.089689025154186 5.125365374940461e-15 -4.9305446131496374e-15 180.0 -46.53823690748006 180.0 3.1805546814635176e-15 -3.1805546814635176e-15 -2.3854160110976384e-15 9.930921067923713 1.0022715757006025e-14 -4.0633221998554976e-15 0.0 0.0 0.0
53.68271563053132 17.184120225906373 517.237187576294 35.39077885582375 -52.29202783464792 45.34007656664032 7.221656035479582 -39.013427023456636 -2.808686704446287 21.500231344636102 -20.378793945214944 18.8936504350415 -108.67956051571052 -6.3611093629270335e-15 59.91275840538507 0.0 0.0 0.0 -19.628408451738515 -29.50546791294761 -4.416061637991165 -9.266541009143326 -5.583723521728269 4.153020906061918 114.81949031153395 6.3611093629270335e-15 -36.41934829249593 0.0 0.0 0.0 -9.851935314695334 -30.353238820893388 -9.01505493476683 1.5902773407317584e-15 0.0 0.0 1.5902773407317584e-15 0.0 0.0 1.5902773407317584e-15 0.0 0.0 1.5902773407317584e-15 0.0 0.0 -125.94962325717007 -4.92942748503505 -162.12701374358122 41.505941956627886 1.1740061310188854e-14 4.054486857808774e-15 -2.268058726651991e-15 75.1308638899822 -2.268058726651991e-15 3.975693351829396e-16 0.0 0.0 -147.0077796889459 -8.621527342977444 173.74901451697733 -39.089689025154186 5.125365374940461e-15 -4.9305446131496374e-15 180.0 -46.53823690748006 180.0 3.1805546814635176e-15 -3.1805546814635176e-15 -2.3854160110976384e-15 9.930921067923713 1.0022715757006025e-14 -4.0633221998554976e-15 0.0 0.0 0.0
48.596468853950505 18.766833615303042 515.2864883422851 31.599746647242114 -52.014976596114735 41.183805622200545 12.381615296788357 -41.499982569834565 0.6682184955313839 23.637351584720456 -21.205126913706795 19.107785691506972 -113.01077063166738 -1.5902773407317584e-14 56.00138228530471 0.0 0.0 0.0 -21.673962002535337 -32.513733763302696 -7.448454784317947 -11.212385755361423 -7.553410479656847 3.069799540289027 104.12032597332328 -3.1805546814635168e-15 -30.410449555212573 0.0 0.0 0.0 -8.014562487163957 -31.985891958258946 -8.2160077600163 1.5902773407317584e-15 0.0 0.0 1.5902773407317584e-15 0.0 0.0 1.5902773407317584e-15 0.0 0.0 1.5902773407317584e-15 0.0 0.0 -133.13944398844947 -9.609204982944838 176.41833855739984 29.70067926149766 1.013128088637713e-14 7.185057470087954e-15 5.750397860060288e-15 61.641297131216845 -3.430734498796241e-15 0.0 0.0 0.0 -151.62382186676916 -14.37267960197373 176.8791368643239 -38.2806703402056 -1.1683220517115945e-14 9.411788255588566e-15 -180.0 -77.21225009544202 180.0 0.0 0.0 3.975693351829396e-16 8.191035825626868 1.755617095299011e-15 -3.3144035818557875e-15 1.5902773407317584e-15 0.0 0.0
44.73109860420227 19.953324937820437 513.8001028060913 29.41332256275972 -50.88788554066177 38.504448145535356 15.549653977157353 -42.94708001183181 3.48904176236076 25.855039955933364 -22.40443394204594 19.978942775608296 -116.51979256481603 0.0 61.17976243895288 -6.361109362927032e-15 -3.531125038440127e-31 6.361109362927032e-15 -22.50885510613481 -34.94060954601309 -9.051520171961952 -11.429273630494158 -8.128655294255903 2.066521180244343 103.35034062947686 6.3611093629270335e-15 -31.07157083394525 0.0 0.0 0.0 -6.559014897436014 -33.56104833031127 -7.3767770124507726 0.0 0.0 0.0 0.0 0.0 0.0 0.0 0.0 0.0 0.0 0.0 0.0 -139.58523669176432 -18.934008124439266 163.13494510357526 33.26606569277352 3.660804878552075e-15 -4.41307986636914e-15 -3.380847072504362e-15 61.32828790888342 5.702121080887065e-15 0.0 0.0 0.0 -156.92277423927393 -12.353345166117823 -179.13692624060215 -37.670074102263214 3.96683545355767e-15 8.07413407980285e-15 -1.3661097856841288e-13 -87.48571136214404 -1.4288506739213364e-13 0.0 0.0 1.3045243810690205e-15 6.431689994843957 -3.880222010221848e-15 1.810800044073131e-15 0.0 0.0 0.0
41.64145131111146 21.049319386482242 512.649892616272 27.732775532721895 -50.01794526499741 36.07625362587595 16.17729238320888 -42.93914239537951 4.709266836353082 28.480283938491077 -24.049879679515367 20.95871051176667 -120.88773186098271 -9.54166404439055e-15 62.458890611950764 0.0 0.0 0.0 -23.07511078562511 -37.000344820891215 -9.54259507205334 -10.88774705101371 -7.838909433778003 0.07366815298638474 107.34516947712848 3.1805546814635168e-15 -36.98616219060252 6.3611093629270335e-15 6.3611093629270335e-15 -3.531125038440127e-31 -5.259113567367433 -34.9384299661147 -6.6239026785220405 -1.5902773407317584e-15 0.0 0.0 -1.5902773407317584e-15 0.0 0.0 -1.5902773407317584e-15 0.0 0.0 -1.5902773407317584e-15 0.0 0.0 -146.03156702893082 -14.90343849869221 160.7330185159789 40.924584776406334 2.979869522907429e-15 -1.1118928492561415e-15 -1.4032263898526226e-15 69.22335736245292 4.8329329717177885e-15 3.975693351829396e-16 0.0 0.0 -162.58990005378482 -12.26039402367703 -176.13454801222602 -35.25012946307497 6.062508083336716e-15 1.92606024479894e-15 -180.0 -61.12925986678693 -180.0 0.0 0.0 1.5902773407317584e-15 5.309349056107183 -1.1369826244574091e-14 3.711144931097059e-15 1.5902773407317584e-15 3.975693351829396e-16 -5.517382872562698e-33
39.33103476762772 22.00246553421021 511.8576307296753 25.702107604780817 -49.8715690170404 33.18370726575077 15.787469183217791 -42.46286080348115 4.447144636580029 29.95814766543823 -24.62694752150864 21.555047301308612 -127.64610476502733 -6.3611093629270335e-15 51.51853594728731 -6.3611093629270335e-15 0.0 0.0 -23.966574854827076 -38.885605923963745 -9.980899169238512 -8.55483899768934 -6.239618100045519 -1.9336662622648746 109.71883079017768 1.2722218725854067e-14 -43.67918403487665 0.0 0.0 0.0 -4.085479931648881 -35.91281515064096 -6.001209419742131 1.5902773407317584e-15 0.0 0.0 1.5902773407317584e-15 0.0 0.0 1.5902773407317584e-15 0.0 0.0 1.5902773407317584e-15 0.0 0.0 -152.5001319960401 -12.574301904777906 160.18828163447196 46.36900937440377 -5.275226658266911e-15 1.0909216391015012e-14 2.609979492873111e-16 73.92271070301258 4.281621511597384e-15 1.3914926731402886e-15 0.0 0.0 -166.71253625223687 -9.412349806609207 -174.06682073566506 -34.09100086455864 -9.122520427423152e-15 -2.796957952358736e-15 180.0 -51.27690496925137 180.0 0.0 0.0 1.5902773407317584e-15 4.7570108487842795 1.2578642565299743e-14 1.069174376108028e-15 0.0 0.0 0.0
